HIERARCHY
ROOT Model
{
	OFFSET 0 0 0
	CHANNELS 6 Xposition Yposition Zposition Zrotation Xrotation Yrotation
	JOINT Model1
	{
		OFFSET 0 -2.25479 2.99384
		CHANNELS 3 Zrotation Xrotation Yrotation
		JOINT Model2
		{
			OFFSET 12.111 0 0
			CHANNELS 3 Zrotation Xrotation Yrotation
			JOINT Model3
			{
				OFFSET 11.5502 0 0
				CHANNELS 3 Zrotation Xrotation Yrotation
				JOINT Model4
				{
					OFFSET 11.781 0 0
					CHANNELS 3 Zrotation Xrotation Yrotation
					JOINT Model5
					{
						OFFSET 20.0601 0 0
						CHANNELS 3 Zrotation Xrotation Yrotation
						JOINT Model6
						{
							OFFSET 11.1962 0 0
							CHANNELS 3 Zrotation Xrotation Yrotation
							End Site
							{
								OFFSET 0 0 0
							}
						}
					}
					JOINT Model7
					{
						OFFSET 10.8223 0.417534 3.51114
						CHANNELS 3 Zrotation Xrotation Yrotation
						JOINT Model8
						{
							OFFSET -6.07944 0 0
							CHANNELS 3 Zrotation Xrotation Yrotation
							JOINT Model9
							{
								OFFSET -0.27742 10.39 -0.051239
								CHANNELS 3 Zrotation Xrotation Yrotation
								JOINT Model10
								{
									OFFSET -3.4391 -0.282043 1.86678
									CHANNELS 3 Zrotation Xrotation Yrotation
									JOINT Model11
									{
										OFFSET 13.0269 0 0
										CHANNELS 3 Zrotation Xrotation Yrotation
										JOINT Model12
										{
											OFFSET 10.8866 0 0
											CHANNELS 3 Zrotation Xrotation Yrotation
											JOINT Model13
											{
												OFFSET 16.7317 0 0
												CHANNELS 3 Zrotation Xrotation Yrotation
												JOINT Model14
												{
													OFFSET 11.8292 0 0
													CHANNELS 3 Zrotation Xrotation Yrotation
													JOINT Model15
													{
														OFFSET 4.82751 -3.73566 -0.836517
														CHANNELS 3 Zrotation Xrotation Yrotation
														JOINT Model16
														{
															OFFSET 3.75311 -0.0582886 -0.0186462
															CHANNELS 3 Zrotation Xrotation Yrotation
															JOINT Model17
															{
																OFFSET 2.88688 0.0192337 0.014801
																CHANNELS 3 Zrotation Xrotation Yrotation
																End Site
																{
																	OFFSET 0 0 0
																}
															}
														}
													}
													JOINT Model18
													{
														OFFSET 9.72197 -3.06458 0.23877
														CHANNELS 3 Zrotation Xrotation Yrotation
														JOINT Model19
														{
															OFFSET 4.61131 0 0
															CHANNELS 3 Zrotation Xrotation Yrotation
															JOINT Model20
															{
																OFFSET 2.8969 -7.62939e-006 0
																CHANNELS 3 Zrotation Xrotation Yrotation
																End Site
																{
																	OFFSET 0 0 0
																}
															}
														}
													}
													JOINT Model21
													{
														OFFSET 9.54431 -0.745064 0.588943
														CHANNELS 3 Zrotation Xrotation Yrotation
														JOINT Model22
														{
															OFFSET 5.33978 0 0
															CHANNELS 3 Zrotation Xrotation Yrotation
															JOINT Model23
															{
																OFFSET 3.03619 7.62939e-006 0
																CHANNELS 3 Zrotation Xrotation Yrotation
																End Site
																{
																	OFFSET 0 0 0
																}
															}
														}
													}
													JOINT Model24
													{
														OFFSET 9.47759 1.51286 0.485123
														CHANNELS 3 Zrotation Xrotation Yrotation
														JOINT Model25
														{
															OFFSET 4.96136 7.62939e-006 0
															CHANNELS 3 Zrotation Xrotation Yrotation
															JOINT Model26
															{
																OFFSET 2.51966 0 0
																CHANNELS 3 Zrotation Xrotation Yrotation
																End Site
																{
																	OFFSET 0 0 0
																}
															}
														}
													}
													JOINT Model27
													{
														OFFSET 9.34247 3.34117 -0.239273
														CHANNELS 3 Zrotation Xrotation Yrotation
														JOINT Model28
														{
															OFFSET 3.2826 2.28882e-005 0
															CHANNELS 3 Zrotation Xrotation Yrotation
															JOINT Model29
															{
																OFFSET 2.1292 0 0
																CHANNELS 3 Zrotation Xrotation Yrotation
																End Site
																{
																	OFFSET 0 0 0
																}
															}
														}
													}
												}
											}
										}
									}
								}
							}
						}
					}
					JOINT Model30
					{
						OFFSET 10.8223 0.4179 -3.51106
						CHANNELS 3 Zrotation Xrotation Yrotation
						JOINT Model31
						{
							OFFSET 6.07944 0 0
							CHANNELS 3 Zrotation Xrotation Yrotation
							JOINT Model32
							{
								OFFSET 0.27742 -10.39 0.051239
								CHANNELS 3 Zrotation Xrotation Yrotation
								JOINT Model33
								{
									OFFSET 3.4391 0.282043 -1.86678
									CHANNELS 3 Zrotation Xrotation Yrotation
									JOINT Model34
									{
										OFFSET -13.0269 0 0
										CHANNELS 3 Zrotation Xrotation Yrotation
										JOINT Model35
										{
											OFFSET -10.8866 0 0
											CHANNELS 3 Zrotation Xrotation Yrotation
											JOINT Model36
											{
												OFFSET -16.7317 0 0
												CHANNELS 3 Zrotation Xrotation Yrotation
												JOINT Model37
												{
													OFFSET -11.8292 0 0
													CHANNELS 3 Zrotation Xrotation Yrotation
													JOINT Model38
													{
														OFFSET -4.82751 3.73566 0.836517
														CHANNELS 3 Zrotation Xrotation Yrotation
														JOINT Model39
														{
															OFFSET -3.75311 0.0582886 0.0186462
															CHANNELS 3 Zrotation Xrotation Yrotation
															JOINT Model40
															{
																OFFSET -2.88689 -0.0192337 -0.014801
																CHANNELS 3 Zrotation Xrotation Yrotation
																End Site
																{
																	OFFSET 0 0 0
																}
															}
														}
													}
													JOINT Model41
													{
														OFFSET -9.72197 3.06459 -0.23877
														CHANNELS 3 Zrotation Xrotation Yrotation
														JOINT Model42
														{
															OFFSET -4.6113 0 0
															CHANNELS 3 Zrotation Xrotation Yrotation
															JOINT Model43
															{
																OFFSET -2.8969 0 0
																CHANNELS 3 Zrotation Xrotation Yrotation
																End Site
																{
																	OFFSET 0 0 0
																}
															}
														}
													}
													JOINT Model44
													{
														OFFSET -9.5443 0.745064 -0.588943
														CHANNELS 3 Zrotation Xrotation Yrotation
														JOINT Model45
														{
															OFFSET -5.33978 0 0
															CHANNELS 3 Zrotation Xrotation Yrotation
															JOINT Model46
															{
																OFFSET -3.03619 -1.52588e-005 0
																CHANNELS 3 Zrotation Xrotation Yrotation
																End Site
																{
																	OFFSET 0 0 0
																}
															}
														}
													}
													JOINT Model47
													{
														OFFSET -9.47758 -1.51286 -0.485123
														CHANNELS 3 Zrotation Xrotation Yrotation
														JOINT Model48
														{
															OFFSET -4.96136 -1.52588e-005 0
															CHANNELS 3 Zrotation Xrotation Yrotation
															JOINT Model49
															{
																OFFSET -2.51965 0 0
																CHANNELS 3 Zrotation Xrotation Yrotation
																End Site
																{
																	OFFSET 0 0 0
																}
															}
														}
													}
													JOINT Model50
													{
														OFFSET -9.34245 -3.34118 0.239273
														CHANNELS 3 Zrotation Xrotation Yrotation
														JOINT Model51
														{
															OFFSET -3.28259 -2.28882e-005 0
															CHANNELS 3 Zrotation Xrotation Yrotation
															JOINT Model52
															{
																OFFSET -2.1292 0 0
																CHANNELS 3 Zrotation Xrotation Yrotation
																End Site
																{
																	OFFSET 0 0 0
																}
															}
														}
													}
												}
											}
										}
									}
								}
							}
						}
					}
				}
			}
		}
	}
	JOINT Model53
	{
		OFFSET 4.38026 -2.14632 -1.11516
		CHANNELS 3 Zrotation Xrotation Yrotation
		JOINT Model54
		{
			OFFSET 0 0 4.95
			CHANNELS 3 Zrotation Xrotation Yrotation
			JOINT Model55
			{
				OFFSET 18.5642 0 0
				CHANNELS 3 Zrotation Xrotation Yrotation
				JOINT Model56
				{
					OFFSET 21.2884 0 1.52588e-005
					CHANNELS 3 Zrotation Xrotation Yrotation
					JOINT Model57
					{
						OFFSET 30.261 0 0
						CHANNELS 3 Zrotation Xrotation Yrotation
						JOINT Model58
						{
							OFFSET 11.7259 0 0
							CHANNELS 3 Zrotation Xrotation Yrotation
							JOINT Model59
							{
								OFFSET 10.682 0 0
								CHANNELS 3 Zrotation Xrotation Yrotation
								End Site
								{
									OFFSET 0 0 0
								}
							}
						}
					}
				}
			}
		}
	}
	JOINT Model60
	{
		OFFSET -4.38026 -2.14632 -1.11516
		CHANNELS 3 Zrotation Xrotation Yrotation
		JOINT Model61
		{
			OFFSET 0 0 -4.95
			CHANNELS 3 Zrotation Xrotation Yrotation
			JOINT Model62
			{
				OFFSET -18.5642 0 0
				CHANNELS 3 Zrotation Xrotation Yrotation
				JOINT Model63
				{
					OFFSET -21.2884 0 -1.52588e-005
					CHANNELS 3 Zrotation Xrotation Yrotation
					JOINT Model64
					{
						OFFSET -30.261 0 0
						CHANNELS 3 Zrotation Xrotation Yrotation
						JOINT Model65
						{
							OFFSET -11.7259 0 0
							CHANNELS 3 Zrotation Xrotation Yrotation
							JOINT Model66
							{
								OFFSET -10.682 0 0
								CHANNELS 3 Zrotation Xrotation Yrotation
								End Site
								{
									OFFSET 0 0 0
								}
							}
						}
					}
				}
			}
		}
	}
}
MOTION
Frames: 5
Frame Time: 0.033333
114.063 180.928 9.41454 92.9377 -12.1724 76.1924 -180 4.29621e-031 -90 5.40345 0.577206 -2.6113 10.8281 0.904768 -5.26555 10.8281 0.905197 -5.26563 -54.1114 -2.37129 13.0238 15.3958 5.6294 -20.1374 120.092 75.5343 58.4939 -19.5688 10.5116 9.11666 -167.277 84.4999 48.8109 -133.617 4.44174 13.0144 -1.26996e-006 21.587 3.1786e-005 -44.2115 -2.0115 0.495132 7.63034e-009 -3.64483 -1.93441e-007 7.94213 -0.156994 -2.2562 -72.0648 39.0385 39.3397 33.3638 2.10362 14.835 0.588947 0.308273 6.35287 -99.6409 81.413 100.35 -0.0181409 2.79913e-005 -0.117315 -0.124139 0.0024114 -0.799296 -79.8382 79.5773 80.5374 -0.000225774 -0.00022073 2.22305e-005 -0.000956224 0.000123155 -2.72719e-005 -66.7416 80.4058 67.2171 -0.000437128 1.61542e-005 -2.72842e-005 -0.000136598 -0.000109009 -5.45921e-005 -6.42159 81.2158 8.01779 -0.000218537 1.72173e-005 0.000212167 0.000901623 -0.000184383 -0.000218529 -59.9282 75.5373 58.5147 -22.5342 -1.38513 3.74174 -167.277 84.4999 48.8109 -123.923 4.01622 15.1571 -5.97343e-007 16.6242 2.86696e-005 -83.3519 14.8022 0.625692 -5.95796e-006 21.688 2.52178e-006 -14.1882 -0.478811 3.85073 -72.0648 39.0385 39.3397 33.3638 2.10361 14.835 0.588946 0.308273 6.35287 -99.6409 81.413 100.35 -0.0181409 2.99446e-005 -0.117315 -0.124139 0.00241096 -0.799296 -79.8382 79.5773 80.5374 -0.000260647 -0.000218687 2.35433e-005 -0.000956227 0.000122832 -2.73574e-005 -66.7416 80.4058 67.2171 -0.000437135 1.47512e-005 -2.73473e-005 -0.000136607 -0.000109459 -5.46774e-005 -6.42159 81.2158 8.01779 -0.000218587 1.93638e-005 0.000212278 0.000901555 -0.000191536 -0.000218591 0.000811311 0.56661 89.91 -16.1242 17.392 20.6574 1.66987e-005 13.7373 -6.4125e-006 50.1044 -14.0095 10.4454 -1.50585e-006 -21.4436 -2.91358e-006 -80.4956 -21.0173 7.26929 -35.7847 1.72316 -0.22129 -180 -0.566579 -90.09 -33.5197 24.6447 11.7826 2.21089e-006 33.1504 -9.81116e-008 62.857 -15.903 -0.00758996 3.6351e-007 -23.9629 -2.58124e-008 -60.7556 -0.655641 -0.274694 -35.7089 -0.607631 0.0301691 
116.071 180.112 10.1335 94.4112 -12.7143 76.3902 -180 4.29621e-031 -90 5.61557 0.553588 -2.78694 11.2517 0.83096 -5.61493 11.2517 0.831388 -5.61502 -55.8283 -0.645162 9.57037 16.0507 5.11574 -15.3249 120.092 75.5343 58.4939 -18.3123 8.88498 7.95613 -167.277 84.4999 48.8109 -136.266 3.49324 10.5682 -2.30138e-006 23.2949 3.21798e-005 -30.8727 -0.780576 -0.0762903 1.42914e-008 -1.67234 -1.93132e-007 7.53948 -0.0657644 -0.993622 -72.0648 39.0385 39.3397 33.3638 2.10362 14.835 0.588947 0.308273 6.35287 -99.6409 81.413 100.35 -0.0181409 2.79913e-005 -0.117315 -0.124139 0.0024114 -0.799296 -79.8382 79.5773 80.5374 -0.000225774 -0.00022073 2.22305e-005 -0.000956224 0.000123155 -2.72719e-005 -66.7416 80.4058 67.2171 -0.000437128 1.61542e-005 -2.72842e-005 -0.000136598 -0.000109009 -5.45921e-005 -6.42159 81.2158 8.01779 -0.000218537 1.72173e-005 0.000212167 0.000901623 -0.000184383 -0.000218529 -59.9282 75.5373 58.5147 -20.52 0.751622 4.46971 -167.277 84.4999 48.8109 -123.059 2.97148 16.728 1.5139e-006 12.5014 2.81384e-005 -74.6377 16.8877 0.61312 -6.10527e-006 24.7294 2.57986e-006 -14.9752 -0.653541 4.95917 -72.0648 39.0385 39.3397 33.3638 2.10361 14.835 0.588946 0.308273 6.35287 -99.6409 81.413 100.35 -0.0181409 2.99446e-005 -0.117315 -0.124139 0.00241096 -0.799296 -79.8382 79.5773 80.5374 -0.000260647 -0.000218687 2.35433e-005 -0.000956227 0.000122832 -2.73574e-005 -66.7416 80.4058 67.2171 -0.000437135 1.47512e-005 -2.73473e-005 -0.000136607 -0.000109459 -5.46774e-005 -6.42159 81.2158 8.01779 -0.000218587 1.93638e-005 0.000212278 0.000901555 -0.000191536 -0.000218591 0.000811311 0.56661 89.91 -13.8627 14.3034 14.1289 1.65471e-005 12.4137 -6.37818e-006 53.6262 -9.25453 17.1618 -1.14781e-006 -14.6143 -2.80257e-006 -78.408 -17.0202 6.00339 -41.5373 8.12851 -0.00401103 -180 -0.566579 -90.09 -33.3343 22.4288 11.1383 2.20458e-006 29.9554 -9.48078e-008 66.3596 -13.6786 -0.00776253 3.65113e-007 -20.63 -2.52038e-008 -65.4004 -0.806313 -0.358762 -35.8251 -0.937041 0.0452966 
117.808 180.044 11.1095 95.6799 -12.1265 78.0537 -180 4.29621e-031 -90 5.68104 0.620848 -2.56859 11.3848 0.983482 -5.18638 11.3848 0.98391 -5.18646 -56.5067 -0.845801 9.20281 16.7441 4.70436 -14.5345 120.092 75.5343 58.4939 -17.4559 8.31425 7.4436 -167.277 84.4999 48.8109 -138.39 2.69394 8.28469 -3.20404e-006 24.7546 3.25473e-005 -19.3295 -1.6159 -2.40272 1.06307e-008 -2.75714 -1.93274e-007 7.4491 -0.0123403 -0.193755 -72.0648 39.0385 39.3397 33.3638 2.10362 14.835 0.588947 0.308273 6.35287 -99.6409 81.413 100.35 -0.0181409 2.79913e-005 -0.117315 -0.124139 0.0024114 -0.799296 -79.8382 79.5773 80.5374 -0.000225774 -0.00022073 2.22305e-005 -0.000956224 0.000123155 -2.72719e-005 -66.7416 80.4058 67.2171 -0.000437128 1.61542e-005 -2.72842e-005 -0.000136598 -0.000109009 -5.45921e-005 -6.42159 81.2158 8.01779 -0.000218537 1.72173e-005 0.000212167 0.000901623 -0.000184383 -0.000218529 -59.9282 75.5373 58.5147 -19.2085 1.92763 4.78851 -167.277 84.4999 48.8109 -123.89 -0.309095 17.3438 4.32775e-006 6.80271 2.76661e-005 -63.0001 20.6766 0.578568 -6.39818e-006 30.3519 2.71545e-006 -16.5003 -0.835831 5.76061 -72.0648 39.0385 39.3397 33.3638 2.10361 14.835 0.588946 0.308273 6.35287 -99.6409 81.413 100.35 -0.0181409 2.99446e-005 -0.117315 -0.124139 0.00241096 -0.799296 -79.8382 79.5773 80.5374 -0.000260647 -0.000218687 2.35433e-005 -0.000956227 0.000122832 -2.73574e-005 -66.7416 80.4058 67.2171 -0.000437135 1.47512e-005 -2.73473e-005 -0.000136607 -0.000109459 -5.46774e-005 -6.42159 81.2158 8.01779 -0.000218587 1.93638e-005 0.000212278 0.000901555 -0.000191536 -0.000218591 0.000811311 0.56661 89.91 -11.5185 -2.51013 -1.83783 1.4917e-005 -2.38026 -6.23444e-006 57.0735 3.52115 9.74875 -1.91332e-007 5.25358 -2.72333e-006 -68.9533 -9.05554 3.69171 -50.8895 13.1779 1.28206 -180 -0.566579 -90.09 -32.5269 19.2376 9.53437 2.19651e-006 25.5506 -9.10467e-008 66.8065 -11.7457 -0.00773941 3.66451e-007 -17.731 -2.47639e-008 -68.8912 0.81398 -1.38345 -35.7892 -0.835456 0.0407722 
119.469 180.741 12.0315 96.5758 -11.1702 80.3238 -180 4.29621e-031 -90 5.52609 0.818789 -2.0994 11.0798 1.43055 -4.26838 11.0798 1.43098 -4.26846 -56.5023 -2.12338 10.5171 17.9117 4.18116 -16.6042 120.092 75.5343 58.4939 -16.2644 9.66041 7.7302 -167.277 84.4999 48.8109 -138.766 1.06397 6.13596 -3.15653e-006 24.6786 3.25274e-005 -11.1052 -3.5333 -4.02169 1.37963e-009 -5.48808 -1.93939e-007 7.9839 0.0162424 0.227071 -72.0648 39.0385 39.3397 33.3638 2.10362 14.835 0.588947 0.308273 6.35287 -99.6409 81.413 100.35 -0.0181409 2.79913e-005 -0.117315 -0.124139 0.0024114 -0.799296 -79.8382 79.5773 80.5374 -0.000225774 -0.00022073 2.22305e-005 -0.000956224 0.000123155 -2.72719e-005 -66.7416 80.4058 67.2171 -0.000437128 1.61542e-005 -2.72842e-005 -0.000136598 -0.000109009 -5.45921e-005 -6.42159 81.2158 8.01779 -0.000218537 1.72173e-005 0.000212167 0.000901623 -0.000184383 -0.000218529 -59.9282 75.5373 58.5147 -18.0336 2.18996 4.6608 -167.277 84.4999 48.8109 -125.896 -5.85988 15.5542 6.8658e-006 1.54098 2.74812e-005 -49.7704 25.3729 0.512496 -6.81796e-006 37.4057 2.9499e-006 -17.3787 -0.798468 5.23363 -72.0648 39.0385 39.3397 33.3638 2.10361 14.835 0.588946 0.308273 6.35287 -99.6409 81.413 100.35 -0.0181409 2.99446e-005 -0.117315 -0.124139 0.00241096 -0.799296 -79.8382 79.5773 80.5374 -0.000260647 -0.000218687 2.35433e-005 -0.000956227 0.000122832 -2.73574e-005 -66.7416 80.4058 67.2171 -0.000437135 1.47512e-005 -2.73473e-005 -0.000136607 -0.000109459 -5.46774e-005 -6.42159 81.2158 8.01779 -0.000218587 1.93638e-005 0.000212278 0.000901555 -0.000191536 -0.000218591 0.000811311 0.56661 89.91 -15.6864 -9.48419 -7.14856 1.41185e-005 -9.63449 -6.31818e-006 64.987 6.57964 -1.18343 2.5865e-008 9.76164 -2.75173e-006 -63.4673 -7.23464 3.54385 -48.616 9.3654 0.744464 -180 -0.566579 -90.09 -30.8597 15.5701 6.77712 2.18851e-006 20.8413 -8.78938e-008 64.5831 -9.41211 -0.00453162 3.68012e-007 -14.2284 -2.43341e-008 -71.1335 2.64413 -2.36375 -35.7043 -0.595046 0.0299155 
121.087 182.013 12.7795 97.2922 -10.679 82.7524 -180 4.29621e-031 -90 5.22188 1.13636 -1.52789 10.4751 2.12808 -3.15358 10.4751 2.12851 -3.15366 -56.3754 -3.45867 11.8587 19.4472 3.48623 -18.9514 120.092 75.5343 58.4939 -13.4257 12.5373 8.13496 -167.277 84.4999 48.8109 -137.892 -1.36564 4.81102 -1.83956e-006 22.5354 3.19999e-005 -5.05348 -3.96431 -3.61973 -3.77529e-010 -6.00436 -1.94115e-007 8.93165 0.0119169 0.158092 -72.0648 39.0385 39.3397 33.3638 2.10362 14.835 0.588947 0.308273 6.35287 -99.6409 81.413 100.35 -0.0181409 2.79913e-005 -0.117315 -0.124139 0.0024114 -0.799296 -79.8382 79.5773 80.5374 -0.000225774 -0.00022073 2.22305e-005 -0.000956224 0.000123155 -2.72719e-005 -66.7416 80.4058 67.2171 -0.000437128 1.61542e-005 -2.72842e-005 -0.000136598 -0.000109009 -5.45921e-005 -6.42159 81.2158 8.01779 -0.000218537 1.72173e-005 0.000212167 0.000901623 -0.000184383 -0.000218529 -59.9282 75.5373 58.5147 -16.5426 2.29961 4.3896 -167.277 84.4999 48.8109 -128.648 -12.4754 11.1795 8.49574e-006 -1.85749 2.74857e-005 -37.1011 28.8947 0.431825 -7.19396e-006 42.7742 3.19231e-006 -14.9958 -0.555716 4.16919 -72.0648 39.0385 39.3397 33.3638 2.10361 14.835 0.588946 0.308273 6.35287 -99.6409 81.413 100.35 -0.0181409 2.99446e-005 -0.117315 -0.124139 0.00241096 -0.799296 -79.8382 79.5773 80.5374 -0.000260647 -0.000218687 2.35433e-005 -0.000956227 0.000122832 -2.73574e-005 -66.7416 80.4058 67.2171 -0.000437135 1.47512e-005 -2.73473e-005 -0.000136607 -0.000109459 -5.46774e-005 -6.42159 81.2158 8.01779 -0.000218587 1.93638e-005 0.000212278 0.000901555 -0.000191536 -0.000218591 0.000811311 0.56661 89.91 -19.6123 -1.65565 -1.34657 1.49978e-005 -1.63856 -6.23161e-006 67.7145 -1.59729 -0.0414117 -5.59517e-007 -2.50891 -2.71449e-006 -66.2453 -8.98513 4.16816 -38.5626 2.00852 -0.258627 -180 -0.566579 -90.09 -28.1851 11.7055 3.58818 2.18099e-006 16.1266 -8.55075e-008 60.4813 -6.60703 0.0394801 3.69827e-007 -10.0164 -2.39527e-008 -72.1502 5.47477 -3.76941 -35.6308 -0.386436 0.0199731 
